<svg width="678" height="704" viewBox="0 0 678 704" fill="none" xmlns="http://www.w3.org/2000/svg">
<path fill-rule="evenodd" clip-rule="evenodd" d="M335.61 1.7461C332.65 5.0161 334.198 8.91709 338.455 8.91709C342.848 8.91709 344.768 2.9571 341.021 0.952098C338.343 -0.480902 337.515 -0.358895 335.61 1.7461ZM303.955 4.4391C237.847 11.7461 178.95 36.1221 126.826 77.7481C115.654 86.6701 91.5071 110.27 82.1451 121.417C38.9951 172.794 12.1701 234.158 4.55213 298.917C2.27213 318.291 2.11014 327.307 4.03614 327.687C5.37214 327.95 5.80816 325.794 6.85816 313.708C10.4042 272.898 19.1212 238.531 34.7062 203.917C65.8952 134.646 117.529 79.6151 184.315 44.4661C223.77 23.7001 269.636 10.6061 314.205 7.38411C322.833 6.76011 323.955 6.46311 323.955 4.79811C323.955 2.54911 321.457 2.5041 303.955 4.4391ZM353.955 4.79811C353.955 6.46311 355.077 6.76011 363.705 7.38411C421.085 11.5331 476.351 30.7481 524.93 63.4411C592.82 109.13 642.433 180.004 661.864 259.057C666.586 278.267 670.54 304.633 671.214 321.407C671.407 326.203 671.804 327.464 673.205 327.731C674.71 328.017 674.954 327.249 674.945 322.24C674.923 308.51 670.891 280.706 665.908 259.917C639.235 148.641 554.926 56.6051 446.455 20.3531C421.613 12.0501 399.252 7.2161 372.598 4.3881C354.555 2.4731 353.955 2.48611 353.955 4.79811ZM459.964 190.007C449.583 191.005 439.338 193.207 427.455 196.993C416.798 200.389 407.178 204.278 335.455 234.184C246.368 271.331 234.177 275.385 207.955 276.588C184.512 277.664 166.944 271.906 147.118 256.647C138.937 250.351 125.427 234.576 119.951 224.925C119.486 224.105 118.8 223.739 118.426 224.112C117.187 225.351 128.329 240.27 136.955 248.921C154.53 266.548 177.321 279.381 200.362 284.625C211.349 287.125 235.582 286.828 248.955 284.028C257.939 282.147 272.433 278.206 277.465 276.275C278.78 275.77 278.954 290.286 278.944 400.06C278.935 508.163 278.736 525.069 277.421 529.403C275.24 536.593 271.638 541.541 267.493 543.04C265.547 543.743 263.955 544.678 263.955 545.118C263.955 545.557 275.993 545.91 290.705 545.901L317.455 545.884L313.497 543.642C311.319 542.409 308.293 539.604 306.771 537.409C300.759 528.734 300.955 533.588 300.955 393.707C300.955 316.19 301.318 265.917 301.879 265.917C302.387 265.917 308.575 263.484 315.629 260.511C327.346 255.573 354.217 244.406 416.455 218.609C452.926 203.493 464.759 200.284 487.955 199.223C525.901 197.486 566.457 214.021 597.202 243.763C601.462 247.885 605.287 250.907 605.702 250.478C606.768 249.376 591.271 234.975 579.701 226.317C568.343 217.817 556.808 211.322 543.175 205.75C521.834 197.027 502.086 191.656 485.099 189.954C473.714 188.814 472.329 188.817 459.964 190.007ZM1.15516 339.117C-0.502839 340.775 -0.348851 344.42 1.44215 345.906C2.29515 346.614 4.00115 346.871 5.44215 346.51C7.81115 345.915 8.48516 344.426 7.97416 340.917C7.55116 338.015 3.36316 336.909 1.15516 339.117ZM670.155 339.117C667.35 341.922 669.463 346.917 673.455 346.917C676.135 346.917 677.955 345.097 677.955 342.417C677.955 339.737 676.135 337.917 673.455 337.917C672.3 337.917 670.815 338.457 670.155 339.117ZM2.95515 362.197C2.95515 374.993 8.18816 406.914 13.5302 426.701C26.4672 474.625 49.8011 519.053 82.1821 557.417C93.3471 570.645 99.6811 576.591 101.096 575.176C101.968 574.304 100.469 572.115 94.9631 566.219C45.8781 513.665 13.4092 441.528 7.50816 371.917C6.46916 359.658 5.89514 356.917 4.36714 356.917C3.32914 356.917 2.95515 358.316 2.95515 362.197ZM670.152 370.167C663.644 441.785 635.032 507.105 585.955 562.377C580.73 568.262 576.455 573.566 576.455 574.163C576.455 577.378 579.734 574.935 588.463 565.218C636.542 511.695 665.4 447.265 673.475 375.417C675.405 358.239 675.383 356.917 673.156 356.917C671.574 356.917 671.21 358.522 670.152 370.167ZM555.955 578.639C549.421 581.094 543.815 589.887 546.063 594.155C546.718 595.399 547.75 596.748 548.355 597.152C550.135 598.34 555.739 598.028 562.07 596.387C568.531 594.713 571.333 595.383 572.439 598.866C573.751 602.999 568.956 608.116 561.705 610.322C559.287 611.057 559.502 612.917 562.005 612.917C566.242 612.917 573.044 607.662 575.833 602.233C577.808 598.389 577.197 594.252 574.32 591.99C571.131 589.481 567.765 589.389 559.526 591.584C556.085 592.501 552.513 592.961 551.589 592.607C547.242 590.939 549.443 585.082 555.504 582.192C560.027 580.035 560.417 576.962 555.955 578.639ZM114.59 580.99C111.278 583.595 111.249 586.301 114.455 593.917C115.83 597.184 116.955 600.926 116.955 602.232C116.955 605.636 113.807 608.169 110.583 607.36C107.689 606.633 101.955 600.668 101.955 598.382C101.955 597.576 101.28 596.917 100.455 596.917C97.3741 596.917 100.093 603.173 104.95 607.259C111.033 612.378 117.97 612.589 121.354 607.758C123.564 604.603 123.37 601.975 120.376 594.497C117.359 586.96 117.457 583.559 120.703 583.098C123.394 582.716 128.586 586.18 129.463 588.943C130.049 590.79 132.963 591.813 132.948 590.167C132.931 588.238 128.688 583.306 125.259 581.23C120.551 578.38 117.981 578.322 114.59 580.99ZM158.861 623.167C155.413 629.355 151.79 635.776 150.81 637.437L149.029 640.457L158.324 645.687C163.436 648.564 168.145 650.917 168.787 650.917C171.679 650.917 169.368 648.733 162.412 644.893L154.87 640.73L158.036 635.073C159.777 631.962 161.317 629.284 161.457 629.122C161.598 628.959 164.037 630.196 166.878 631.872C172.407 635.131 173.512 635.443 174.409 633.992C174.723 633.483 172.297 631.591 169.016 629.788L163.052 626.509L165.663 621.713C167.098 619.075 168.627 616.917 169.06 616.917C169.493 616.917 172.535 618.492 175.82 620.417C182.092 624.093 184.395 624.75 183.711 622.667C183.341 621.54 167.388 611.987 165.792 611.938C165.428 611.926 162.309 616.98 158.861 623.167ZM498.037 622.552C498.267 633.369 500.56 654.933 501.455 654.69C502.005 654.54 502.455 651.737 502.455 648.462V642.507L508.325 639.204L514.195 635.902L519.104 639.429C523.194 642.367 524.353 642.774 526.045 641.869C527.162 641.271 527.937 640.39 527.766 639.91C527.499 639.161 508.902 625.805 500.705 620.475L497.955 618.687L498.037 622.552ZM510.937 634.082C510.947 634.447 508.93 635.878 506.455 637.261L501.955 639.776L501.944 637.097C501.938 635.623 501.646 632.682 501.296 630.561L500.659 626.706L505.789 630.061C508.611 631.907 510.927 633.716 510.937 634.082ZM216.508 640.061C212.759 650.991 206.955 669.188 206.955 670.012C206.955 670.601 207.489 670.906 208.142 670.688C208.795 670.47 211.217 664.695 213.526 657.855C215.834 651.014 217.972 646.092 218.276 646.917C218.581 647.742 219.572 654.492 220.48 661.917C221.388 669.342 222.28 675.568 222.463 675.753C222.645 675.939 227.622 671.093 233.523 664.985C239.424 658.878 244.387 654.015 244.552 654.18C244.716 654.345 242.986 660.032 240.705 666.817C236.694 678.754 236.62 679.199 238.453 680.539C239.495 681.301 240.652 681.585 241.024 681.171C241.396 680.756 243.965 673.578 246.734 665.219L251.769 650.022L249.112 649.082C246.642 648.209 245.744 648.845 236.363 658.105L226.27 668.067L224.647 654.36C223.754 646.82 222.894 640.523 222.737 640.366C222.58 640.208 221.219 639.77 219.712 639.392C217.814 638.916 216.831 639.121 216.508 640.061ZM447.418 643.167C447.157 643.855 449.196 650.897 451.949 658.816C454.702 666.736 456.955 673.373 456.955 673.566C456.955 674.326 460.87 673.864 461.377 673.044C461.674 672.563 459.615 665.363 456.802 657.044C452.612 644.652 451.344 641.917 449.79 641.917C448.746 641.917 447.679 642.48 447.418 643.167ZM388.455 658.486C378.398 663.706 375.356 673.508 380.949 682.676C386.853 692.355 403.198 692.548 411.205 683.032C417.565 675.473 414.379 662.081 405.319 658.296C400.919 656.457 392.174 656.556 388.455 658.486ZM287.531 659.167C286.441 662.946 282.22 689.534 282.611 690.167C283.498 691.606 286.824 690.904 287.348 689.167C287.638 688.204 288.818 681.792 289.97 674.917C291.123 668.042 292.314 661.404 292.619 660.167C293.087 658.262 292.767 657.917 290.532 657.917C289.08 657.917 287.73 658.48 287.531 659.167ZM404.951 662.759C410.97 668.778 410.926 679.239 404.859 684.344C402.378 686.432 400.755 686.917 396.246 686.917C391.211 686.917 390.387 686.595 387.445 683.475C383.928 679.746 382.508 674.799 383.481 669.667C384.706 663.206 389.184 659.917 396.754 659.917C401.304 659.917 402.536 660.344 404.951 662.759ZM334.775 679.374C334.398 694.575 334.103 697.096 332.494 698.874C331.477 699.998 330.04 700.917 329.3 700.917C328.56 700.917 327.955 701.367 327.955 701.917C327.955 704.211 333.657 702.837 336.518 699.854L339.455 696.791L339.769 679.354L340.084 661.917H337.645H335.207L334.775 679.374Z" fill="#9A5955"/>
</svg>
